<mxfile host="app.diagrams.net" agent="Mozilla/5.0 (Windows NT 10.0; Win64; x64) AppleWebKit/537.36 (KHTML, like Gecko) Chrome/138.0.0.0 Safari/537.36" version="28.0.7">
  <diagram name="Page-1" id="4Mm72XQy_JXwUEO-CqoB">
    <mxGraphModel dx="1140" dy="701" grid="0" gridSize="10" guides="1" tooltips="1" connect="1" arrows="1" fold="1" page="1" pageScale="1" pageWidth="827" pageHeight="1169" math="0" shadow="0" adaptiveColors="auto">
      <root>
        <mxCell id="0" />
        <mxCell id="1" parent="0" />
        <mxCell id="e97nmp-JFkZC4VCxw7Dj-72" value="Akaunting 技术架构图" style="text;html=1;strokeColor=none;fillColor=none;align=center;verticalAlign=middle;whiteSpace=wrap;rounded=0;labelBackgroundColor=none;fontColor=#1A1A1A;" vertex="1" parent="1">
          <mxGeometry x="320" y="20" width="160" height="30" as="geometry" />
        </mxCell>
        <mxCell id="e97nmp-JFkZC4VCxw7Dj-73" value="前端层" style="swimlane;html=1;startSize=20;labelBackgroundColor=none;fillColor=#F5AB50;strokeColor=#909090;fontColor=#1A1A1A;" vertex="1" parent="1">
          <mxGeometry x="40" y="80" width="720" height="160" as="geometry" />
        </mxCell>
        <mxCell id="e97nmp-JFkZC4VCxw7Dj-74" value="Vue.js" style="rounded=1;whiteSpace=wrap;html=1;labelBackgroundColor=none;fillColor=#F5AB50;strokeColor=#909090;fontColor=#1A1A1A;" vertex="1" parent="e97nmp-JFkZC4VCxw7Dj-73">
          <mxGeometry x="80" y="60" width="120" height="60" as="geometry" />
        </mxCell>
        <mxCell id="e97nmp-JFkZC4VCxw7Dj-75" value="Tailwind CSS" style="rounded=1;whiteSpace=wrap;html=1;labelBackgroundColor=none;fillColor=#F5AB50;strokeColor=#909090;fontColor=#1A1A1A;" vertex="1" parent="e97nmp-JFkZC4VCxw7Dj-73">
          <mxGeometry x="300" y="60" width="120" height="60" as="geometry" />
        </mxCell>
        <mxCell id="e97nmp-JFkZC4VCxw7Dj-76" value="Axios" style="rounded=1;whiteSpace=wrap;html=1;labelBackgroundColor=none;fillColor=#F5AB50;strokeColor=#909090;fontColor=#1A1A1A;" vertex="1" parent="e97nmp-JFkZC4VCxw7Dj-73">
          <mxGeometry x="520" y="60" width="120" height="60" as="geometry" />
        </mxCell>
        <mxCell id="e97nmp-JFkZC4VCxw7Dj-77" value="应用层" style="swimlane;html=1;startSize=20;labelBackgroundColor=none;fillColor=#F5AB50;strokeColor=#909090;fontColor=#1A1A1A;" vertex="1" parent="1">
          <mxGeometry x="40" y="280" width="720" height="160" as="geometry" />
        </mxCell>
        <mxCell id="e97nmp-JFkZC4VCxw7Dj-78" value="Laravel Framework" style="rounded=1;whiteSpace=wrap;html=1;labelBackgroundColor=none;fillColor=#F5AB50;strokeColor=#909090;fontColor=#1A1A1A;" vertex="1" parent="e97nmp-JFkZC4VCxw7Dj-77">
          <mxGeometry x="80" y="60" width="120" height="60" as="geometry" />
        </mxCell>
        <mxCell id="e97nmp-JFkZC4VCxw7Dj-79" value="Eloquent ORM" style="rounded=1;whiteSpace=wrap;html=1;labelBackgroundColor=none;fillColor=#F5AB50;strokeColor=#909090;fontColor=#1A1A1A;" vertex="1" parent="e97nmp-JFkZC4VCxw7Dj-77">
          <mxGeometry x="300" y="60" width="120" height="60" as="geometry" />
        </mxCell>
        <mxCell id="e97nmp-JFkZC4VCxw7Dj-80" value="Blade Templates" style="rounded=1;whiteSpace=wrap;html=1;labelBackgroundColor=none;fillColor=#F5AB50;strokeColor=#909090;fontColor=#1A1A1A;" vertex="1" parent="e97nmp-JFkZC4VCxw7Dj-77">
          <mxGeometry x="520" y="60" width="120" height="60" as="geometry" />
        </mxCell>
        <mxCell id="e97nmp-JFkZC4VCxw7Dj-81" value="数据层" style="swimlane;html=1;startSize=20;labelBackgroundColor=none;fillColor=#F5AB50;strokeColor=#909090;fontColor=#1A1A1A;" vertex="1" parent="1">
          <mxGeometry x="40" y="480" width="720" height="160" as="geometry" />
        </mxCell>
        <mxCell id="e97nmp-JFkZC4VCxw7Dj-82" value="MySQL" style="rounded=1;whiteSpace=wrap;html=1;labelBackgroundColor=none;fillColor=#F5AB50;strokeColor=#909090;fontColor=#1A1A1A;" vertex="1" parent="e97nmp-JFkZC4VCxw7Dj-81">
          <mxGeometry x="80" y="60" width="120" height="60" as="geometry" />
        </mxCell>
        <mxCell id="e97nmp-JFkZC4VCxw7Dj-83" value="Redis" style="rounded=1;whiteSpace=wrap;html=1;labelBackgroundColor=none;fillColor=#F5AB50;strokeColor=#909090;fontColor=#1A1A1A;" vertex="1" parent="e97nmp-JFkZC4VCxw7Dj-81">
          <mxGeometry x="300" y="60" width="120" height="60" as="geometry" />
        </mxCell>
        <mxCell id="e97nmp-JFkZC4VCxw7Dj-84" value="文件存储" style="rounded=1;whiteSpace=wrap;html=1;labelBackgroundColor=none;fillColor=#F5AB50;strokeColor=#909090;fontColor=#1A1A1A;" vertex="1" parent="e97nmp-JFkZC4VCxw7Dj-81">
          <mxGeometry x="520" y="60" width="120" height="60" as="geometry" />
        </mxCell>
        <mxCell id="e97nmp-JFkZC4VCxw7Dj-85" value="基础设施层" style="swimlane;html=1;startSize=20;labelBackgroundColor=none;fillColor=#F5AB50;strokeColor=#909090;fontColor=#1A1A1A;" vertex="1" parent="1">
          <mxGeometry x="40" y="680" width="720" height="160" as="geometry" />
        </mxCell>
        <mxCell id="e97nmp-JFkZC4VCxw7Dj-86" value="Nginx" style="rounded=1;whiteSpace=wrap;html=1;labelBackgroundColor=none;fillColor=#F5AB50;strokeColor=#909090;fontColor=#1A1A1A;" vertex="1" parent="e97nmp-JFkZC4VCxw7Dj-85">
          <mxGeometry x="80" y="60" width="120" height="60" as="geometry" />
        </mxCell>
        <mxCell id="e97nmp-JFkZC4VCxw7Dj-87" value="PHP-FPM" style="rounded=1;whiteSpace=wrap;html=1;labelBackgroundColor=none;fillColor=#F5AB50;strokeColor=#909090;fontColor=#1A1A1A;" vertex="1" parent="e97nmp-JFkZC4VCxw7Dj-85">
          <mxGeometry x="300" y="60" width="120" height="60" as="geometry" />
        </mxCell>
        <mxCell id="e97nmp-JFkZC4VCxw7Dj-88" value="Composer" style="rounded=1;whiteSpace=wrap;html=1;labelBackgroundColor=none;fillColor=#F5AB50;strokeColor=#909090;fontColor=#1A1A1A;" vertex="1" parent="e97nmp-JFkZC4VCxw7Dj-85">
          <mxGeometry x="520" y="60" width="120" height="60" as="geometry" />
        </mxCell>
      </root>
    </mxGraphModel>
  </diagram>
</mxfile>
